<?xml version="1.0" standalone="no"?>
<svg xmlns="http://www.w3.org/2000/svg" viewBox="0 0 120.506 36" width="120.506" height="36"><g fill="#f1c500" color="#f1c500" transform="translate(99.8, 6) scale(0.4705883)"><svg width="44.0" height="51.0" x="0.0" y="0.0" viewBox="0 0 44 51"><path fill="currentColor" fill-rule="evenodd" d="M22 0L0 12.571v25.143l22 12.572 21.994-12.568.006-.01V12.571L22 0zM6.354 13.778L22 4.84l15.645 8.938-4.231 2.419L22 9.678l-11.411 6.52-4.235-2.42zm17.764 10.158v-8.21L31.3 19.83v8.208l-7.182-4.101zm-11.416-4.107l7.18-4.102v8.207l-7.18 4.103v-8.208zm11.416 19.57l11.415-6.522V19.826l4.233-2.42v17.89l-15.648 8.941v-4.838zM4.233 35.296v-17.89l4.233 2.42v13.049l11.416 6.524v4.838l-15.649-8.94zm10.583-3.63l7.182-4.104 7.183 4.104L22 35.768l-7.184-4.102z"></path></svg></g><path fill="#ffffff" fill-rule="nonzero" d="M0 10.90L0 10.90L0 8.78Q0 5.45 1.75 3.58Q3.50 1.70 6.60 1.70Q9.70 1.70 11.57 3.58L11.57 3.58Q12.89 4.90 12.89 7.54L12.89 7.54L9.77 7.54Q9.77 4.68 6.72 4.68L6.72 4.68Q5.81 4.68 5.17 5.03Q4.54 5.38 4.22 5.83Q3.91 6.29 3.74 7.18Q3.58 8.06 3.55 8.66Q3.53 9.26 3.53 10.27Q3.53 11.28 3.54 11.63Q3.55 11.98 3.61 12.76Q3.67 13.54 3.80 13.87Q3.94 14.21 4.19 14.74Q4.44 15.26 4.82 15.48L4.82 15.48Q5.81 16.10 7.06 16.10L7.06 16.10Q9.14 16.10 10.01 14.33L10.01 14.33L10.01 13.18L7.94 13.18L7.94 10.39L12.86 10.39L12.86 15.55Q12.12 17.30 10.51 18.19Q8.90 19.08 6.86 19.08L6.86 19.08Q3.24 19.08 1.62 17.05Q0 15.02 0 10.90ZM25.54 5.14L25.54 18.94L23.45 18.94L22.49 17.28L19.15 19.08Q16.37 19.08 15.41 17.06L15.41 17.06Q14.93 16.08 14.75 14.94Q14.57 13.80 14.57 12.56Q14.57 11.33 14.59 10.74Q14.62 10.15 14.71 9.37Q14.81 8.59 14.99 8.06Q15.17 7.54 15.50 6.97Q15.84 6.41 16.32 6.07L16.32 6.07Q17.40 5.33 19.13 5.33L19.13 5.33L22.42 5.33L25.54 5.14ZM20.04 15.79L22.42 14.57L22.42 8.14L20.04 8.14Q18.72 8.14 18.20 9.14Q17.69 10.15 17.69 12.16Q17.69 14.16 18.18 14.98Q18.67 15.79 20.04 15.79L20.04 15.79ZM39.17 5.23L39.17 18.94L36.84 18.94L36.12 17.30L32.28 19.08Q30.67 19.08 29.48 17.89Q28.30 16.70 28.30 14.42L28.30 14.42L28.30 5.23L31.42 5.23L31.42 13.75Q31.42 16.03 33.24 16.03L33.24 16.03L36.05 14.52L36.05 5.23L39.17 5.23ZM48.53 16.30L48.53 18.94L46.58 18.94Q44.81 18.94 43.88 17.88Q42.96 16.82 42.96 15.36L42.96 15.36L42.96 8.16L41.64 8.16L41.64 5.78L42.96 5.78L42.96 3.10L46.08 3.10L46.08 5.78L48.29 5.78L48.29 8.16L46.08 8.16L46.08 15.17Q46.08 16.30 47.16 16.30L47.16 16.30L48.53 16.30ZM61.70 9.65L61.70 18.94L58.58 18.94L58.58 10.34Q58.58 8.14 56.86 8.14L56.86 8.14L53.88 9.31L53.88 18.94L50.76 18.94L50.76 0.89L53.88 0.89L53.88 6.86L57.84 5.09Q59.95 5.09 60.83 6.29Q61.70 7.49 61.70 9.65L61.70 9.65ZM66.36 0Q67.49 0 67.82 0.35Q68.16 0.70 68.16 1.81Q68.16 2.93 67.81 3.28Q67.46 3.62 66.35 3.62Q65.23 3.62 64.88 3.26Q64.54 2.90 64.54 1.80Q64.54 0.70 64.88 0.35Q65.23 0 66.36 0ZM67.90 5.74L67.90 18.94L64.78 18.94L64.78 5.74L67.90 5.74ZM81.65 12.82L81.65 12.82L73.66 12.82Q73.66 14.69 74.24 15.55Q74.83 16.42 76.61 16.42L76.61 16.42Q77.76 16.42 78.31 15.68Q78.86 14.95 78.86 14.28L78.86 14.28L81.67 14.28Q81.67 16.85 80.29 18.05Q78.91 19.25 76.64 19.25Q74.38 19.25 73.13 18.60L73.13 18.60Q70.56 17.28 70.56 11.59L70.56 11.59Q70.56 8.21 72.02 6.64Q73.49 5.06 76.49 5.06L76.49 5.06Q81.70 5.06 81.70 10.85L81.70 10.85Q81.70 11.47 81.65 12.82ZM73.73 10.68L73.73 10.68L78.86 10.68Q78.86 9.10 78.26 8.38Q77.66 7.66 76.43 7.66Q75.19 7.66 74.46 8.39Q73.73 9.12 73.73 10.68ZM91.80 5.28L91.80 5.28L90.94 8.35Q90.58 8.21 90.12 8.21L90.12 8.21Q88.92 8.21 87.17 9.24L87.17 9.24L87.17 18.94L84.05 18.94L84.05 5.23L86.38 5.23L87.10 6.43L90.41 5.06Q90.65 5.04 91.06 5.04Q91.46 5.04 91.80 5.28Z" transform="translate(0, 8.376)"></path></svg>